<?xml version="1.0" encoding="UTF-8" standalone="no"?>
<svg width="124px" height="29px" viewBox="0 0 124 29" version="1.1" xmlns="http://www.w3.org/2000/svg" xmlns:xlink="http://www.w3.org/1999/xlink" xmlns:sketch="http://www.bohemiancoding.com/sketch/ns">
    <!-- Generator: Sketch 3.0.2 (7799) - http://www.bohemiancoding.com/sketch -->
    <title>life_satisfaction_2</title>
    <description>Created with Sketch.</description>
    <defs></defs>
    <g id="Page-3" stroke="none" stroke-width="1" fill="none" fill-rule="evenodd" sketch:type="MSPage">
        <g id="A4" sketch:type="MSArtboardGroup" transform="translate(-161.000000, -687.000000)">
            <g id="life_satisfaction_2" sketch:type="MSLayerGroup" transform="translate(161.000000, 687.000000)">
                <rect id="Rectangle-5" sketch:type="MSShapeGroup" x="0" y="0" width="124" height="29"></rect>
                <path d="M21.5742233,28.8937087 C17.4072087,28.4156908 15.891335,26.0698801 8.8968932,26.0698801 L8.8968932,13.9745808 C15.6584709,13.0796601 17.3131311,7.65628927 18.5996359,3.46174708 C19.0901214,1.86251945 19.5875971,-0.468457528 21.4690049,0.0824683029 C23.6474272,0.720394134 23.3361408,6.4938417 21.9926942,10.3095297 C23.5176699,11.4334095 25.928301,12.6153634 29.9999272,12.0977394 C29.9070146,13.4965629 29.7526456,14.6538187 28.733665,14.9481946 L27.4776699,15.2870719 C27.0357524,15.4232458 26.7868689,15.8980003 26.9205583,16.347389 C27.0541019,16.7973711 27.5204126,17.0511767 27.9616019,16.9151512 L29.2700971,16.5153813 C29.0030097,18.3017368 28.874199,19.2866243 27.6882524,19.6526473 L26.7459466,19.9577778 C26.3046117,20.0937292 26.0556553,20.568632 26.1886165,21.0177241 C26.3225243,21.4674095 26.7886893,21.7221793 27.2302427,21.5855604 L28.4480825,21.1639108 C28.2376456,22.7763404 28.0856068,23.8628391 26.9379612,24.216476 L26.0203398,24.554389 C25.5787136,24.6901921 25.3296117,25.1651691 25.4630825,25.6149287 C25.5969175,26.0643916 26.0629369,26.3184939 26.5039806,26.1820233 L27.4893204,25.8276448 C27.1303398,28.397742 24.6920388,29.2513507 21.5742233,28.8937087 L21.5742233,28.8937087 Z M0,12.737742 L0,26.9656908 L6.69196602,26.9656908 L6.69196602,12.737742 L0,12.737742 L0,12.737742 Z M3.3459466,25.0257317 C2.74033981,25.0257317 2.24919903,24.5256115 2.24919903,23.9086013 C2.24919903,23.2915911 2.74026699,22.7914709 3.3459466,22.7914709 C3.95162621,22.7914709 4.44269417,23.2915911 4.44269417,23.9086013 C4.44269417,24.5256115 3.95169903,25.0257317 3.3459466,25.0257317 L3.3459466,25.0257317 Z" id="Path-2" fill="#FF6276" sketch:type="MSShapeGroup" transform="translate(15.000000, 14.500000) scale(1, -1) translate(-15.000000, -14.500000) "></path>
                <path d="M68.5742233,28.8937087 C64.4072087,28.4156908 62.891335,26.0698801 55.8968932,26.0698801 L55.8968932,13.9745808 C62.6584709,13.0796601 64.3131311,7.65628927 65.5996359,3.46174708 C66.0901214,1.86251945 66.5875971,-0.468457528 68.4690049,0.0824683029 C70.6474272,0.720394134 70.3361408,6.4938417 68.9926942,10.3095297 C70.5176699,11.4334095 72.928301,12.6153634 76.9999272,12.0977394 C76.9070146,13.4965629 76.7526456,14.6538187 75.733665,14.9481946 L74.4776699,15.2870719 C74.0357524,15.4232458 73.7868689,15.8980003 73.9205583,16.347389 C74.0541019,16.7973711 74.5204126,17.0511767 74.9616019,16.9151512 L76.2700971,16.5153813 C76.0030097,18.3017368 75.874199,19.2866243 74.6882524,19.6526473 L73.7459466,19.9577778 C73.3046117,20.0937292 73.0556553,20.568632 73.1886165,21.0177241 C73.3225243,21.4674095 73.7886893,21.7221793 74.2302427,21.5855604 L75.4480825,21.1639108 C75.2376456,22.7763404 75.0856068,23.8628391 73.9379612,24.216476 L73.0203398,24.554389 C72.5787136,24.6901921 72.3296117,25.1651691 72.4630825,25.6149287 C72.5969175,26.0643916 73.0629369,26.3184939 73.5039806,26.1820233 L74.4893204,25.8276448 C74.1303398,28.397742 71.6920388,29.2513507 68.5742233,28.8937087 L68.5742233,28.8937087 Z M47,12.737742 L47,26.9656908 L53.691966,26.9656908 L53.691966,12.737742 L47,12.737742 L47,12.737742 Z M50.3459466,25.0257317 C49.7403398,25.0257317 49.249199,24.5256115 49.249199,23.9086013 C49.249199,23.2915911 49.740267,22.7914709 50.3459466,22.7914709 C50.9516262,22.7914709 51.4426942,23.2915911 51.4426942,23.9086013 C51.4426942,24.5256115 50.951699,25.0257317 50.3459466,25.0257317 L50.3459466,25.0257317 Z" id="Path-3" fill="#FF6276" sketch:type="MSShapeGroup" transform="translate(62.000000, 14.500000) scale(1, -1) translate(-62.000000, -14.500000) "></path>
                <path d="M115.574223,28.8937087 C111.407209,28.4156908 109.891335,26.0698801 102.896893,26.0698801 L102.896893,13.9745808 C109.658471,13.0796601 111.313131,7.65628927 112.599636,3.46174708 C113.090121,1.86251945 113.587597,-0.468457528 115.469005,0.0824683029 C117.647427,0.720394134 117.336141,6.4938417 115.992694,10.3095297 C117.51767,11.4334095 119.928301,12.6153634 123.999927,12.0977394 C123.907015,13.4965629 123.752646,14.6538187 122.733665,14.9481946 L121.47767,15.2870719 C121.035752,15.4232458 120.786869,15.8980003 120.920558,16.347389 C121.054102,16.7973711 121.520413,17.0511767 121.961602,16.9151512 L123.270097,16.5153813 C123.00301,18.3017368 122.874199,19.2866243 121.688252,19.6526473 L120.745947,19.9577778 C120.304612,20.0937292 120.055655,20.568632 120.188617,21.0177241 C120.322524,21.4674095 120.788689,21.7221793 121.230243,21.5855604 L122.448083,21.1639108 C122.237646,22.7763404 122.085607,23.8628391 120.937961,24.216476 L120.02034,24.554389 C119.578714,24.6901921 119.329612,25.1651691 119.463083,25.6149287 C119.596917,26.0643916 120.062937,26.3184939 120.503981,26.1820233 L121.48932,25.8276448 C121.13034,28.397742 118.692039,29.2513507 115.574223,28.8937087 L115.574223,28.8937087 Z M94,12.737742 L94,26.9656908 L100.691966,26.9656908 L100.691966,12.737742 L94,12.737742 L94,12.737742 Z M97.3459466,25.0257317 C96.7403398,25.0257317 96.249199,24.5256115 96.249199,23.9086013 C96.249199,23.2915911 96.740267,22.7914709 97.3459466,22.7914709 C97.9516262,22.7914709 98.4426942,23.2915911 98.4426942,23.9086013 C98.4426942,24.5256115 97.951699,25.0257317 97.3459466,25.0257317 L97.3459466,25.0257317 Z" id="Path-4" fill="#FF6276" sketch:type="MSShapeGroup" transform="translate(109.000000, 14.500000) scale(1, -1) translate(-109.000000, -14.500000) "></path>
            </g>
        </g>
    </g>
</svg>